{"title":"Rychly Prachy (Praha - 16.09.2013) - Jarmila","uid":8946118,"size":351355061,"categoryP":"porn","categoryS":"movies","magnet":"?xt=urn:btih:cfedd0b735c2ab337848d77ceeecdd8be1a6dec8&amp;dn=Rychly+Prachy+%28Praha+-+16.09.2013%29+-+Jarmila&amp;tr=udp%3A%2F%2Ftracker.openbittorrent.com%3A80&amp;tr=udp%3A%2F%2Fopen.demonii.com%3A1337&amp;tr=udp%3A%2F%2Ftracker.coppersurfer.tk%3A6969&amp;tr=udp%3A%2F%2Fexodus.desync.com%3A6969","seeders":1,"leechers":0,"uploader":null,"files":3,"time":1379781997,"description":"\n                Rychly Prachy (Praha - 16.09.2013) - Jarmila\n\n\n\nScreen:\n  &lt;a href=&quot;\nhttp://image.bayimg.com/f7103c8d4426b48652d4fcad5a02115d198ef30b.jpg&quot; rel=&quot;nofollow&quot; target=&quot;_NEW&quot;&gt;\nhttp://image.bayimg.com/f7103c8d4426b48652d4fcad5a02115d198ef30b.jpg&lt;/a&gt;\n\n\nOficial website:\n  &lt;a href=&quot;\nhttp://rychlyprachy.cz&quot; rel=&quot;nofollow&quot; target=&quot;_NEW&quot;&gt;\nhttp://rychlyprachy.cz&lt;/a&gt;\n\n\nDirect Link:\n  &lt;a href=&quot;\nhttp://rychlyprachy.cz/video69.cz.html&quot; rel=&quot;nofollow&quot; target=&quot;_NEW&quot;&gt;\nhttp://rychlyprachy.cz/video69.cz.html&lt;/a&gt;\n\n\nGeneral\nComplete name                            : Rychly Prachy (Praha - 16.09.2013) - Jarmila.wmv\nFormat                                   : Windows Media\nFile size                                : 335 MiB\nDuration                                 : 17mn 46s\nOverall bit rate mode                    : Constant\nOverall bit rate                         : 2 634 Kbps\nMaximum Overall bit rate                 : 2 645 Kbps\nEncoded date                             : UTC 2013-09-16 23:11:56.221\nSfOriginalFPS                            : 300000\n\nVideo\nID                                       : 2\nFormat                                   : VC-1\nFormat profile                           : MP@ML\nCodec ID                                 : WMV3\nCodec ID/Info                            : Windows Media Video 9\nCodec ID/Hint                            : WMV3\nDescription of the codec                 : Windows Media Video 9 - Professional\nDuration                                 : 17mn 46s\nBit rate mode                            : Constant\nBit rate                                 : 2 525 Kbps\nWidth                                    : 640 pixels\nHeight                                   : 480 pixels\nDisplay aspect ratio                     : 4:3\nFrame rate                               : 30.000 fps\nColor space                              : YUV\nChroma subsampling                       : 4:2:0\nBit depth                                : 8 bits\nScan type                                : Progressive\nCompression mode                         : Lossy\nBits/(Pixel*Frame)                       : 0.274\nStream size                              : 321 MiB (96%)\nLanguage                                 : Czech\n\nAudio\nID                                       : 1\nFormat                                   : WMA\nFormat version                           : Version 2\nCodec ID                                 : 161\nCodec ID/Info                            : Windows Media Audio\nDescription of the codec                 : Windows Media Audio 9.2 -  96 kbps, 44 kHz, stereo (A/V) 1-pass CBR\nDuration                                 : 17mn 46s\nBit rate mode                            : Constant\nBit rate                                 : 96.0 Kbps\nChannel(s)                               : 2 channels\nSampling rate                            : 44.1 KHz\nBit depth                                : 16 bits\nStream size                              : 12.2 MiB (4%)\nLanguage                                 : Czech\n","torrent":{"xt":"urn:btih:cfedd0b735c2ab337848d77ceeecdd8be1a6dec8","amp;dn":"Rychly+Prachy+%28Praha+-+16.09.2013%29+-+Jarmila","amp;tr":["udp%3A%2F%2Ftracker.openbittorrent.com%3A80","udp%3A%2F%2Fopen.demonii.com%3A1337","udp%3A%2F%2Ftracker.coppersurfer.tk%3A6969","udp%3A%2F%2Fexodus.desync.com%3A6969"],"infoHash":"cfedd0b735c2ab337848d77ceeecdd8be1a6dec8","infoHashBuffer":{"type":"Buffer","data":[207,237,208,183,53,194,171,51,120,72,215,124,238,236,221,139,225,166,222,200]},"announce":[],"urlList":[]}}